<svg width="285" height="80" viewBox="0 0 285 80" fill="none" xmlns="http://www.w3.org/2000/svg">
<path d="M34.8036 62.1032L22.3002 43.937L20.5197 41.351L6.01099 20.2712H12.252L23.9853 37.3189L25.7657 39.9049L41.0445 62.1032H34.8036ZM43.6246 60.3287L27.8765 37.4499L26.0961 34.8623L14.8309 18.4963L13.8972 17.14H0.0546875L3.43065 22.0457L18.409 43.8088L20.1895 46.3935L32.2243 63.8797L33.1581 65.2344H47.0007L43.6246 60.3287Z" fill="black"/>
<path d="M20.5191 41.351L22.2996 43.9369L20.1889 46.3935L3.99365 65.2344H0L18.4083 43.8088L20.5191 41.351Z" fill="black"/>
<path d="M45.3332 17.1394L27.8756 37.4493L25.7648 39.9043L23.9844 37.3183L26.0952 34.8617L37.9207 21.0975L41.3395 17.1394H45.3332Z" fill="black"/>
<path d="M78.5625 26.9375C78.4375 31.3958 78.375 36 78.375 40.75V55.375C78.375 56.125 78.1042 56.7292 77.5625 57.1875C77.0625 57.6458 76.5208 57.875 75.9375 57.875C75.3542 57.875 74.7708 57.6667 74.1875 57.25C73.6458 56.875 73.3333 56.2083 73.25 55.25V40.875C73.25 36.25 73.3125 31.7708 73.4375 27.4375C71.4375 27.6458 69.6458 27.8333 68.0625 28C66.4792 28.125 65.0833 28.2708 63.875 28.4375C63.0417 28.3542 62.3958 28.0625 61.9375 27.5625C61.5208 27.0625 61.3125 26.4583 61.3125 25.75C61.3125 24.9583 61.6875 24.3542 62.4375 23.9375C63.1875 23.5208 64.1875 23.2083 65.4375 23C66.6875 22.75 68.125 22.5833 69.75 22.5C71.4167 22.4167 73.1667 22.2917 75 22.125C77.5417 21.9167 79.7917 21.75 81.75 21.625C83.7083 21.5 85.3958 21.4375 86.8125 21.4375C88.3125 21.9792 89.0625 22.8125 89.0625 23.9375C88.9375 24.8125 88.5625 25.4375 87.9375 25.8125C87.3542 26.1875 86.5833 26.4375 85.625 26.5625C84.7083 26.6875 83.6458 26.75 82.4375 26.75C81.2292 26.75 79.9375 26.8125 78.5625 26.9375ZM121.938 47.3125C123.021 43.9375 123.896 40.6042 124.562 37.3125C125.229 33.9792 125.854 30.625 126.438 27.25C126.562 26.5417 126.854 25.9792 127.312 25.5625C127.812 25.1458 128.375 24.9375 129 24.9375C129.708 24.9375 130.292 25.1875 130.75 25.6875C131.25 26.1875 131.5 26.8958 131.5 27.8125C130.833 32.1875 129.938 36.5833 128.812 41C127.688 45.375 126.583 49.5208 125.5 53.4375C125.25 54.3542 124.979 55.125 124.688 55.75C124.396 56.3333 123.771 56.7292 122.812 56.9375H122.625C121.917 56.8958 121.479 56.7917 121.312 56.625L120.875 56.1875C120.125 55.1458 119.583 54.1667 119.25 53.25C118.917 52.2917 118.583 51.3333 118.25 50.375C117.667 49.0833 116.958 47.6458 116.125 46.0625C115.333 44.4375 114.604 42.75 113.938 41L113.5 39.8125C112.75 41.4375 112.083 43 111.5 44.5C110.917 46 110.354 47.4792 109.812 48.9375C109.312 50.3958 108.792 51.8542 108.25 53.3125C107.708 54.7708 107.104 56.25 106.438 57.75C105.979 58.375 105.333 58.7917 104.5 59H104.312C103.562 58.9167 102.917 58.6458 102.375 58.1875C101.833 57.7708 101.521 57.2083 101.438 56.5C100.896 54.125 100.438 51.7917 100.062 49.5C99.6875 47.1667 99.2292 44.875 98.6875 42.625C97.6875 39.0833 96.7708 35.6042 95.9375 32.1875C95.1042 28.7708 94.4375 25.1667 93.9375 21.375C93.8958 21.25 93.875 21.0833 93.875 20.875C93.875 20.1667 94.1042 19.5625 94.5625 19.0625C95.0625 18.5625 95.6667 18.3125 96.375 18.3125C96.875 18.3125 97.375 18.4792 97.875 18.8125C98.375 19.1458 98.7292 19.6875 98.9375 20.4375C99.4375 24.1875 100.104 27.75 100.938 31.125C101.771 34.4583 102.667 37.9167 103.625 41.5L105 48.0625L105.25 46.8125L106.438 43.4375C107.146 41.4375 107.875 39.4792 108.625 37.5625C109.375 35.6458 110.146 33.6875 110.938 31.6875C111.021 31.5208 111.083 31.25 111.125 30.875C111.208 30.4583 111.333 30.0625 111.5 29.6875C111.708 29.2708 111.979 28.9167 112.312 28.625C112.688 28.3333 113.229 28.1667 113.938 28.125H114.062C115.188 28.4167 115.917 29.2083 116.25 30.5L116.312 31.6875C116.396 33.1875 116.792 34.8333 117.5 36.625C118.208 38.4167 118.958 40.1875 119.75 41.9375C120.083 42.9375 120.417 43.8958 120.75 44.8125C121.125 45.6875 121.521 46.5208 121.938 47.3125ZM140.25 57.9375C139.333 57.8958 138.688 57.5833 138.312 57C137.938 56.4167 137.75 55.8333 137.75 55.25C137.75 54.6667 137.979 54.125 138.438 53.625C138.896 53.125 139.542 52.875 140.375 52.875L145.312 52.625L145.25 51.875C145.25 49.9583 145.229 48.2917 145.188 46.875C145.188 45.4167 145.167 44.0833 145.125 42.875C145.083 41.625 145.042 40.4583 145 39.375C144.958 38.25 144.896 37.0833 144.812 35.875C144.771 34.625 144.729 33.2708 144.688 31.8125C144.646 30.3542 144.604 28.6667 144.562 26.75C144.562 26.5833 144.562 26.4583 144.562 26.375C144.604 26.2917 144.625 26.2083 144.625 26.125C144.625 26.0417 144.604 26 144.562 26C143.938 26.0417 143.229 26.0625 142.438 26.0625C141.688 26.0625 140.833 26.0625 139.875 26.0625C138.958 25.9792 138.312 25.6667 137.938 25.125C137.562 24.5417 137.375 23.9375 137.375 23.3125C137.375 22.7292 137.604 22.1875 138.062 21.6875C138.521 21.1875 139.104 20.9375 139.812 20.9375C142.188 20.9375 144.458 20.8958 146.625 20.8125C148.792 20.6875 151 20.625 153.25 20.625C153.958 20.875 154.521 21.2292 154.938 21.6875C155.354 22.1458 155.562 22.625 155.562 23.125C155.562 23.9167 155.312 24.5 154.812 24.875C154.354 25.2083 153.792 25.4583 153.125 25.625C152.5 25.75 151.833 25.8125 151.125 25.8125C150.458 25.7708 149.917 25.7708 149.5 25.8125H149.438C149.438 25.8958 149.458 26 149.5 26.125C149.542 26.2083 149.604 26.3542 149.688 26.5625C149.729 28.4792 149.771 30.1667 149.812 31.625C149.854 33.0833 149.896 34.4375 149.938 35.6875C150.021 36.8958 150.083 38.0625 150.125 39.1875C150.167 40.3125 150.208 41.5 150.25 42.75C150.292 43.9583 150.312 45.3125 150.312 46.8125C150.354 48.2708 150.375 49.9583 150.375 51.875V52.3125C151.208 52.2708 152.062 52.25 152.938 52.25C153.854 52.2083 154.812 52.1875 155.812 52.1875C156.521 52.3958 157.062 52.7292 157.438 53.1875C157.854 53.6458 158.062 54.1458 158.062 54.6875C157.979 55.2708 157.75 55.8125 157.375 56.3125C157 56.7708 156.438 57.0833 155.688 57.25C153.062 57.25 150.479 57.3333 147.938 57.5C145.438 57.6667 142.875 57.8125 140.25 57.9375ZM181.312 26.9375C181.188 31.3958 181.125 36 181.125 40.75V55.375C181.125 56.125 180.854 56.7292 180.312 57.1875C179.812 57.6458 179.271 57.875 178.688 57.875C178.104 57.875 177.521 57.6667 176.938 57.25C176.396 56.875 176.083 56.2083 176 55.25V40.875C176 36.25 176.062 31.7708 176.188 27.4375C174.188 27.6458 172.396 27.8333 170.812 28C169.229 28.125 167.833 28.2708 166.625 28.4375C165.792 28.3542 165.146 28.0625 164.688 27.5625C164.271 27.0625 164.062 26.4583 164.062 25.75C164.062 24.9583 164.438 24.3542 165.188 23.9375C165.938 23.5208 166.938 23.2083 168.188 23C169.438 22.75 170.875 22.5833 172.5 22.5C174.167 22.4167 175.917 22.2917 177.75 22.125C180.292 21.9167 182.542 21.75 184.5 21.625C186.458 21.5 188.146 21.4375 189.562 21.4375C191.062 21.9792 191.812 22.8125 191.812 23.9375C191.688 24.8125 191.312 25.4375 190.688 25.8125C190.104 26.1875 189.333 26.4375 188.375 26.5625C187.458 26.6875 186.396 26.75 185.188 26.75C183.979 26.75 182.688 26.8125 181.312 26.9375ZM213.812 26.9375C213.688 31.3958 213.625 36 213.625 40.75V55.375C213.625 56.125 213.354 56.7292 212.812 57.1875C212.312 57.6458 211.771 57.875 211.188 57.875C210.604 57.875 210.021 57.6667 209.438 57.25C208.896 56.875 208.583 56.2083 208.5 55.25V40.875C208.5 36.25 208.562 31.7708 208.688 27.4375C206.688 27.6458 204.896 27.8333 203.312 28C201.729 28.125 200.333 28.2708 199.125 28.4375C198.292 28.3542 197.646 28.0625 197.188 27.5625C196.771 27.0625 196.562 26.4583 196.562 25.75C196.562 24.9583 196.938 24.3542 197.688 23.9375C198.438 23.5208 199.438 23.2083 200.688 23C201.938 22.75 203.375 22.5833 205 22.5C206.667 22.4167 208.417 22.2917 210.25 22.125C212.792 21.9167 215.042 21.75 217 21.625C218.958 21.5 220.646 21.4375 222.062 21.4375C223.562 21.9792 224.312 22.8125 224.312 23.9375C224.188 24.8125 223.812 25.4375 223.188 25.8125C222.604 26.1875 221.833 26.4375 220.875 26.5625C219.958 26.6875 218.896 26.75 217.688 26.75C216.479 26.75 215.188 26.8125 213.812 26.9375ZM232.188 56.6875C231.812 56.1875 231.5 55.5833 231.25 54.875C231.042 54.1667 230.875 53.4167 230.75 52.625C230.625 51.8333 230.521 51.0208 230.438 50.1875C230.396 49.3542 230.354 48.5625 230.312 47.8125L229.938 40.3125C229.812 39.1042 229.708 38.1875 229.625 37.5625C229.583 36.9375 229.521 36.3125 229.438 35.6875C229.396 35.0208 229.354 34.2292 229.312 33.3125C229.312 32.3542 229.312 30.9583 229.312 29.125C229.312 28.5 229.292 27.8958 229.25 27.3125C229.25 26.7292 229.25 26.1458 229.25 25.5625C229.25 24.0625 229.625 23.0417 230.375 22.5C231.167 21.9167 232.167 21.625 233.375 21.625C234.083 21.625 234.833 21.6667 235.625 21.75C236.417 21.7917 237.208 21.8125 238 21.8125C239.458 21.8125 240.896 21.625 242.312 21.25C243.729 20.8333 245.104 20.5 246.438 20.25C247.271 20.25 247.979 20.4792 248.562 20.9375C249.146 21.3542 249.438 21.875 249.438 22.5C249.438 23.0833 249.25 23.6667 248.875 24.25C248.5 24.7917 247.896 25.1458 247.062 25.3125C245.438 25.6458 243.771 26.0208 242.062 26.4375C240.354 26.8542 238.625 27.0625 236.875 27.0625C236.417 27.0625 235.958 27.0625 235.5 27.0625C235.042 27.0625 234.646 27.0208 234.312 26.9375C234.354 28.5208 234.396 30.0417 234.438 31.5C234.479 32.9583 234.542 34.375 234.625 35.75H234.688C237.854 35.4167 240.833 35.2292 243.625 35.1875C246.417 35.1042 249.375 35.0625 252.5 35.0625C254.042 35.4792 254.812 36.3333 254.812 37.625C254.812 38.2083 254.583 38.75 254.125 39.25C253.708 39.7083 253.125 40 252.375 40.125C252.042 40.125 251.375 40.125 250.375 40.125C249.417 40.125 248.292 40.1458 247 40.1875C245.708 40.1875 244.354 40.2083 242.938 40.25C241.521 40.25 240.208 40.2917 239 40.375C237.833 40.4167 236.854 40.4792 236.062 40.5625C235.312 40.6458 234.938 40.75 234.938 40.875C234.938 42.75 235.042 44.625 235.25 46.5C235.5 48.3333 235.708 50.1458 235.875 51.9375C237 51.5208 238.229 51.1667 239.562 50.875C240.896 50.5417 242.271 50.2917 243.688 50.125C245.146 49.9583 246.625 49.8333 248.125 49.75C249.625 49.6667 251.083 49.625 252.5 49.625C253.333 49.9583 253.917 50.3542 254.25 50.8125C254.625 51.2292 254.812 51.7083 254.812 52.25C254.812 52.8333 254.583 53.375 254.125 53.875C253.708 54.3333 253.125 54.625 252.375 54.75C250.458 54.75 248.458 54.8958 246.375 55.1875C244.292 55.4375 242.354 55.75 240.562 56.125C238.812 56.4583 237.312 56.75 236.062 57C234.812 57.2917 234.062 57.4375 233.812 57.4375C233.604 57.4375 233.354 57.3542 233.062 57.1875C232.812 57.0625 232.521 56.8958 232.188 56.6875ZM264.938 57.3125C264.938 58.0208 264.667 58.6042 264.125 59.0625C263.625 59.5208 263.083 59.75 262.5 59.75C261.917 59.75 261.333 59.5417 260.75 59.125C260.208 58.75 259.896 58.125 259.812 57.25C259.812 54.4583 259.833 51.6875 259.875 48.9375C259.958 46.1875 260 43.4167 260 40.625C260 39.8333 259.938 38.5833 259.812 36.875C259.729 35.125 259.688 33.3125 259.688 31.4375C259.688 29.4375 259.75 27.4792 259.875 25.5625C260.042 23.6458 260.417 21.9792 261 20.5625L261.375 19.9375L262.062 19.375C263.188 18.9583 264.354 18.75 265.562 18.75C267.271 18.75 269.104 18.9375 271.062 19.3125C273.021 19.6458 274.833 20.25 276.5 21.125C278.167 22 279.542 23.1875 280.625 24.6875C281.75 26.1458 282.312 28.0208 282.312 30.3125C282.312 31.3958 282.146 32.3958 281.812 33.3125C281.521 34.2292 281.125 35.0625 280.625 35.8125C280.167 36.5625 279.625 37.2292 279 37.8125C278.417 38.3958 277.833 38.875 277.25 39.25C276.042 40.0417 274.708 40.6667 273.25 41.125C271.792 41.5417 270.271 42.0208 268.688 42.5625L267.938 42.8125C267.854 42.7708 267.812 42.75 267.812 42.75C268.812 43.4583 269.75 44.2083 270.625 45C271.542 45.75 272.458 46.5 273.375 47.25C274.333 48 275.312 48.7292 276.312 49.4375C277.354 50.1042 278.479 50.7292 279.688 51.3125C280.479 52.0625 280.875 52.8542 280.875 53.6875C280.875 54.3958 280.625 54.9792 280.125 55.4375C279.667 55.8542 279.104 56.0625 278.438 56.0625C277.938 56.0625 277.354 55.9167 276.688 55.625C276.021 55.3333 275.333 54.9792 274.625 54.5625C273.917 54.1042 273.188 53.625 272.438 53.125C271.729 52.625 271.062 52.1667 270.438 51.75C269.354 51.0417 268.354 50.3125 267.438 49.5625C266.562 48.8125 265.771 48.0833 265.062 47.375V48.6875C265.062 50.0625 265.021 51.4792 264.938 52.9375C264.896 54.3542 264.896 55.8125 264.938 57.3125ZM265.125 38.125C265.042 38.2083 265 38.25 265 38.25C264.958 38.25 265.062 38.2083 265.312 38.125C266.229 37.875 267.354 37.625 268.688 37.375C270.062 37.0833 271.375 36.6875 272.625 36.1875C273.875 35.6458 274.938 34.9375 275.812 34.0625C276.729 33.1458 277.188 31.9167 277.188 30.375C277.188 29.125 276.938 28.1458 276.438 27.4375C275.979 26.7292 275.354 26.1875 274.562 25.8125C273.812 25.3958 272.958 25.1042 272 24.9375C271.042 24.7292 270.083 24.5208 269.125 24.3125C268.583 24.1875 267.979 24.0833 267.312 24C266.646 23.875 266.083 23.8125 265.625 23.8125C265.458 23.8125 265.333 24.0833 265.25 24.625C265.167 25.125 265.104 25.7292 265.062 26.4375C265.062 27.1458 265.062 27.8542 265.062 28.5625C265.062 29.2292 265.062 29.7292 265.062 30.0625C265.062 31.6042 265.062 33.0625 265.062 34.4375C265.104 35.8125 265.125 37.0417 265.125 38.125Z" fill="black"/>
</svg>
