<svg width="313" height="80" viewBox="0 0 313 80" fill="none" xmlns="http://www.w3.org/2000/svg">
<path d="M0.519531 40.153L8.82708 36.5185V27.1725L18.1731 32.3647L26.4806 28.7301L8.82708 18.3457L0.519531 22.4995V40.153Z" fill="black"/>
<path d="M53.999 22.4998L46.7299 18.8652L37.3839 24.0574L43.6146 27.1728L0 47.4224V57.8068L6.74988 60.9222L16.6151 56.7684L10.3844 53.1339L53.999 33.4034V22.4998Z" fill="black"/>
<path d="M54.0001 56.7684V40.1533L46.2118 43.2686V52.6146L36.3466 47.9416L28.0391 52.6146L46.2118 61.4414L54.0001 56.7684Z" fill="black"/>
<path d="M27.5193 61.9607L22.8463 59.8838L14.0195 64.0376L27.5193 71.3067L41.019 64.0376L33.2307 59.8838L27.5193 61.9607Z" fill="black"/>
<path d="M27.5193 9L14.0195 15.7499L22.3271 20.9421L27.5193 18.346L31.6731 20.9421L41.019 16.7883L27.5193 9Z" fill="black"/>
<path d="M72.5 21.1875C72.6667 21.0625 73.0417 21 73.625 21L79.625 22.5625C81.125 22.8958 82.5208 23.5833 83.8125 24.625C85.1458 25.625 86.3333 26.7708 87.375 28.0625C88.4167 29.3125 89.2708 30.625 89.9375 32C90.6458 33.375 91.125 34.5833 91.375 35.625C91.6667 36.7917 91.8125 38.0833 91.8125 39.5C91.8125 40.4167 91.7292 41.4583 91.5625 42.625C91.4375 43.7917 91.1875 44.9583 90.8125 46.125C90.4792 47.2917 90 48.4167 89.375 49.5C88.7917 50.5417 88.0208 51.4375 87.0625 52.1875C85.8542 53.1458 84.9167 53.8542 84.25 54.3125C83.5833 54.7708 82.9792 55.125 82.4375 55.375C81.9375 55.625 81.3542 55.8542 80.6875 56.0625C80.0625 56.2292 79.1458 56.5208 77.9375 56.9375C77.6042 57.0208 77.3542 57.0625 77.1875 57.0625C76.7292 57.0625 76.3125 56.9583 75.9375 56.75C75.6042 56.5 75.3958 56.375 75.3125 56.375H75.25H75.1875C75.1458 56.375 74.8958 56.5208 74.4375 56.8125C74.0208 57.1042 73.625 57.25 73.25 57.25C72.6667 57.25 72.0625 57.0625 71.4375 56.6875C70.8542 56.3125 70.5625 55.7292 70.5625 54.9375C70.5625 49.5208 70.3125 44.1875 69.8125 38.9375C69.3542 33.6875 68.875 28.3333 68.375 22.875C68.7083 21.5833 69.5417 20.8333 70.875 20.625C71.5 20.625 72.0208 20.7708 72.4375 21.0625L72.5 21.1875ZM75.625 52.375C75.5833 52.4583 75.5625 52.5 75.5625 52.5C75.5625 52.5417 75.6042 52.5625 75.6875 52.5625C75.7708 52.5625 75.8542 52.5625 75.9375 52.5625C76.0625 52.5625 76.2083 52.5208 76.375 52.4375C77.125 52.1875 77.9167 51.9375 78.75 51.6875C79.5833 51.4375 80.3958 51.1042 81.1875 50.6875C81.9792 50.2292 82.7292 49.625 83.4375 48.875C84.1875 48.125 84.875 47.1042 85.5 45.8125C86.4167 43.8542 86.875 41.875 86.875 39.875C86.875 37.875 86.4167 35.8958 85.5 33.9375C84.625 31.9375 83.3125 30.25 81.5625 28.875C80.6042 28.1667 79.5625 27.6042 78.4375 27.1875C77.3125 26.7708 76.25 26.4375 75.25 26.1875L73.75 25.8125C73.9583 27.9792 74.1667 30.2292 74.375 32.5625C74.5833 34.8542 74.7708 37.1458 74.9375 39.4375C75.1458 41.7292 75.2917 43.9792 75.375 46.1875C75.5 48.3958 75.5833 50.4583 75.625 52.375ZM99.1875 56.6875C98.8125 56.1875 98.5 55.5833 98.25 54.875C98.0417 54.1667 97.875 53.4167 97.75 52.625C97.625 51.8333 97.5208 51.0208 97.4375 50.1875C97.3958 49.3542 97.3542 48.5625 97.3125 47.8125L96.9375 40.3125C96.8125 39.1042 96.7083 38.1875 96.625 37.5625C96.5833 36.9375 96.5208 36.3125 96.4375 35.6875C96.3958 35.0208 96.3542 34.2292 96.3125 33.3125C96.3125 32.3542 96.3125 30.9583 96.3125 29.125C96.3125 28.5 96.2917 27.8958 96.25 27.3125C96.25 26.7292 96.25 26.1458 96.25 25.5625C96.25 24.0625 96.625 23.0417 97.375 22.5C98.1667 21.9167 99.1667 21.625 100.375 21.625C101.083 21.625 101.833 21.6667 102.625 21.75C103.417 21.7917 104.208 21.8125 105 21.8125C106.458 21.8125 107.896 21.625 109.312 21.25C110.729 20.8333 112.104 20.5 113.438 20.25C114.271 20.25 114.979 20.4792 115.562 20.9375C116.146 21.3542 116.438 21.875 116.438 22.5C116.438 23.0833 116.25 23.6667 115.875 24.25C115.5 24.7917 114.896 25.1458 114.062 25.3125C112.438 25.6458 110.771 26.0208 109.062 26.4375C107.354 26.8542 105.625 27.0625 103.875 27.0625C103.417 27.0625 102.958 27.0625 102.5 27.0625C102.042 27.0625 101.646 27.0208 101.312 26.9375C101.354 28.5208 101.396 30.0417 101.438 31.5C101.479 32.9583 101.542 34.375 101.625 35.75H101.688C104.854 35.4167 107.833 35.2292 110.625 35.1875C113.417 35.1042 116.375 35.0625 119.5 35.0625C121.042 35.4792 121.812 36.3333 121.812 37.625C121.812 38.2083 121.583 38.75 121.125 39.25C120.708 39.7083 120.125 40 119.375 40.125C119.042 40.125 118.375 40.125 117.375 40.125C116.417 40.125 115.292 40.1458 114 40.1875C112.708 40.1875 111.354 40.2083 109.938 40.25C108.521 40.25 107.208 40.2917 106 40.375C104.833 40.4167 103.854 40.4792 103.062 40.5625C102.312 40.6458 101.938 40.75 101.938 40.875C101.938 42.75 102.042 44.625 102.25 46.5C102.5 48.3333 102.708 50.1458 102.875 51.9375C104 51.5208 105.229 51.1667 106.562 50.875C107.896 50.5417 109.271 50.2917 110.688 50.125C112.146 49.9583 113.625 49.8333 115.125 49.75C116.625 49.6667 118.083 49.625 119.5 49.625C120.333 49.9583 120.917 50.3542 121.25 50.8125C121.625 51.2292 121.812 51.7083 121.812 52.25C121.812 52.8333 121.583 53.375 121.125 53.875C120.708 54.3333 120.125 54.625 119.375 54.75C117.458 54.75 115.458 54.8958 113.375 55.1875C111.292 55.4375 109.354 55.75 107.562 56.125C105.812 56.4583 104.312 56.75 103.062 57C101.812 57.2917 101.062 57.4375 100.812 57.4375C100.604 57.4375 100.354 57.3542 100.062 57.1875C99.8125 57.0625 99.5208 56.8958 99.1875 56.6875ZM126.75 26.4375C126.5 25.9375 126.375 25.4792 126.375 25.0625C126.375 24.3542 126.604 23.7708 127.062 23.3125C127.521 22.8125 128.104 22.5625 128.812 22.5625C129.188 22.5625 129.583 22.6458 130 22.8125C130.417 22.9792 130.792 23.2708 131.125 23.6875C132.5 25.6458 133.812 27.5208 135.062 29.3125C136.354 31.1042 137.625 32.7917 138.875 34.375L141.625 30.1875C142.125 29.4375 142.75 28.5 143.5 27.375C144.292 26.25 145.104 25.1875 145.938 24.1875C146.771 23.1458 147.604 22.25 148.438 21.5C149.271 20.75 150 20.375 150.625 20.375C151.25 20.375 151.812 20.625 152.312 21.125C152.812 21.5833 153.062 22.1042 153.062 22.6875C153.062 23.3958 152.812 24.0833 152.312 24.75C150.312 27 148.458 29.2917 146.75 31.625C145.083 33.9583 143.583 36.2917 142.25 38.625L149.812 47.5625C150.146 47.9375 150.604 48.4375 151.188 49.0625C151.812 49.6458 152.417 50.2917 153 51C153.583 51.7083 154.083 52.4583 154.5 53.25C154.958 54.0417 155.188 54.7708 155.188 55.4375C155.188 56.2708 154.917 56.8958 154.375 57.3125C153.875 57.7292 153.354 57.9375 152.812 57.9375C152.438 57.8958 152.083 57.7917 151.75 57.625C151.458 57.5 151.146 57.1875 150.812 56.6875L150.062 55.625C149.688 55.125 149.333 54.6875 149 54.3125C148.708 53.9375 148.479 53.5833 148.312 53.25L146.25 50.6875C145.333 49.7292 144.542 48.9167 143.875 48.25C143.208 47.5833 142.562 46.875 141.938 46.125L139.562 43.3125C139.229 43.8958 138.792 44.7083 138.25 45.75C137.708 46.75 137.104 47.8542 136.438 49.0625C135.812 50.2292 135.146 51.3958 134.438 52.5625C133.729 53.6875 133.042 54.625 132.375 55.375C131.792 55.6667 131.25 55.8125 130.75 55.8125C130.042 55.8125 129.438 55.5833 128.938 55.125C128.479 54.625 128.25 54.0417 128.25 53.375C128.25 52.7083 128.688 51.7708 129.562 50.5625C130.479 49.3542 131.5 47.7292 132.625 45.6875C133.708 43.6875 134.5 42.125 135 41C135.542 39.875 135.917 39.2083 136.125 39C134.5 37.0833 132.896 35.0625 131.312 32.9375C129.771 30.8125 128.25 28.6458 126.75 26.4375ZM177.312 26.9375C177.188 31.3958 177.125 36 177.125 40.75V55.375C177.125 56.125 176.854 56.7292 176.312 57.1875C175.812 57.6458 175.271 57.875 174.688 57.875C174.104 57.875 173.521 57.6667 172.938 57.25C172.396 56.875 172.083 56.2083 172 55.25V40.875C172 36.25 172.062 31.7708 172.188 27.4375C170.188 27.6458 168.396 27.8333 166.812 28C165.229 28.125 163.833 28.2708 162.625 28.4375C161.792 28.3542 161.146 28.0625 160.688 27.5625C160.271 27.0625 160.062 26.4583 160.062 25.75C160.062 24.9583 160.438 24.3542 161.188 23.9375C161.938 23.5208 162.938 23.2083 164.188 23C165.438 22.75 166.875 22.5833 168.5 22.5C170.167 22.4167 171.917 22.2917 173.75 22.125C176.292 21.9167 178.542 21.75 180.5 21.625C182.458 21.5 184.146 21.4375 185.562 21.4375C187.062 21.9792 187.812 22.8125 187.812 23.9375C187.688 24.8125 187.312 25.4375 186.688 25.8125C186.104 26.1875 185.333 26.4375 184.375 26.5625C183.458 26.6875 182.396 26.75 181.188 26.75C179.979 26.75 178.688 26.8125 177.312 26.9375ZM206.438 20.3125C206.812 20.3125 207.167 20.3542 207.5 20.4375C207.792 20.1458 208.292 20 209 20C210 20 210.75 20.3958 211.25 21.1875L212.562 23.375C213.604 24.4167 214.458 25.625 215.125 27C215.833 28.3333 216.396 29.7292 216.812 31.1875C217.229 32.6458 217.521 34.1042 217.688 35.5625C217.854 37.0208 217.938 38.375 217.938 39.625C217.938 41.75 217.625 43.9583 217 46.25C216.375 48.5417 215.25 50.625 213.625 52.5C212.125 54.4167 210.771 55.8125 209.562 56.6875C208.354 57.5208 206.896 57.9375 205.188 57.9375C204.479 57.9375 203.562 57.8542 202.438 57.6875C201.354 57.5208 200.229 57.1667 199.062 56.625C197.938 56.0833 196.875 55.2917 195.875 54.25C194.875 53.2083 194.146 51.8125 193.688 50.0625C193.271 48.6042 192.958 47.3333 192.75 46.25C192.583 45.125 192.5 44 192.5 42.875C192.5 40.875 192.667 38.9167 193 37C193.375 35.0417 193.875 33.2292 194.5 31.5625C195.125 29.8542 195.875 28.3333 196.75 27C197.667 25.6667 198.667 24.6042 199.75 23.8125C201.5 22.5625 203.729 21.3958 206.438 20.3125ZM207.812 25.25L206.062 25.8125C204.896 26.1875 203.875 26.8125 203 27.6875C202.125 28.5208 201.375 29.4792 200.75 30.5625C200.125 31.6458 199.604 32.7917 199.188 34C198.771 35.1667 198.438 36.2917 198.188 37.375C197.938 38.4583 197.75 39.4167 197.625 40.25C197.542 41.0833 197.5 41.6667 197.5 42C197.5 44.9167 198.312 47.9375 199.938 51.0625C200.729 51.7292 201.521 52.2292 202.312 52.5625C203.146 52.8958 204.208 53.0625 205.5 53.0625C205.583 53.0625 205.708 53.0208 205.875 52.9375L206.25 52.8125C206.333 52.7708 206.417 52.7292 206.5 52.6875C206.583 52.6458 206.667 52.5833 206.75 52.5L207.562 51.8125C207.729 51.7708 207.854 51.6458 207.938 51.4375C208.688 50.6042 209.354 49.7708 209.938 48.9375C210.562 48.1042 211.083 47.2083 211.5 46.25C211.958 45.25 212.292 44.1875 212.5 43.0625C212.75 41.8958 212.875 40.5833 212.875 39.125C212.875 37.2083 212.604 35.3125 212.062 33.4375C211.562 31.5208 210.833 29.75 209.875 28.125C209.167 27.2083 208.688 26.625 208.438 26.375C208.229 26.0833 208.062 25.7708 207.938 25.4375L207.812 25.25ZM236.188 20.3125C236.562 20.3125 236.917 20.3542 237.25 20.4375C237.542 20.1458 238.042 20 238.75 20C239.75 20 240.5 20.3958 241 21.1875L242.312 23.375C243.354 24.4167 244.208 25.625 244.875 27C245.583 28.3333 246.146 29.7292 246.562 31.1875C246.979 32.6458 247.271 34.1042 247.438 35.5625C247.604 37.0208 247.688 38.375 247.688 39.625C247.688 41.75 247.375 43.9583 246.75 46.25C246.125 48.5417 245 50.625 243.375 52.5C241.875 54.4167 240.521 55.8125 239.312 56.6875C238.104 57.5208 236.646 57.9375 234.938 57.9375C234.229 57.9375 233.312 57.8542 232.188 57.6875C231.104 57.5208 229.979 57.1667 228.812 56.625C227.688 56.0833 226.625 55.2917 225.625 54.25C224.625 53.2083 223.896 51.8125 223.438 50.0625C223.021 48.6042 222.708 47.3333 222.5 46.25C222.333 45.125 222.25 44 222.25 42.875C222.25 40.875 222.417 38.9167 222.75 37C223.125 35.0417 223.625 33.2292 224.25 31.5625C224.875 29.8542 225.625 28.3333 226.5 27C227.417 25.6667 228.417 24.6042 229.5 23.8125C231.25 22.5625 233.479 21.3958 236.188 20.3125ZM237.562 25.25L235.812 25.8125C234.646 26.1875 233.625 26.8125 232.75 27.6875C231.875 28.5208 231.125 29.4792 230.5 30.5625C229.875 31.6458 229.354 32.7917 228.938 34C228.521 35.1667 228.188 36.2917 227.938 37.375C227.688 38.4583 227.5 39.4167 227.375 40.25C227.292 41.0833 227.25 41.6667 227.25 42C227.25 44.9167 228.062 47.9375 229.688 51.0625C230.479 51.7292 231.271 52.2292 232.062 52.5625C232.896 52.8958 233.958 53.0625 235.25 53.0625C235.333 53.0625 235.458 53.0208 235.625 52.9375L236 52.8125C236.083 52.7708 236.167 52.7292 236.25 52.6875C236.333 52.6458 236.417 52.5833 236.5 52.5L237.312 51.8125C237.479 51.7708 237.604 51.6458 237.688 51.4375C238.438 50.6042 239.104 49.7708 239.688 48.9375C240.312 48.1042 240.833 47.2083 241.25 46.25C241.708 45.25 242.042 44.1875 242.25 43.0625C242.5 41.8958 242.625 40.5833 242.625 39.125C242.625 37.2083 242.354 35.3125 241.812 33.4375C241.312 31.5208 240.583 29.75 239.625 28.125C238.917 27.2083 238.438 26.625 238.188 26.375C237.979 26.0833 237.812 25.7708 237.688 25.4375L237.562 25.25ZM251.75 22.4375C251.917 21.6458 252.208 21.0625 252.625 20.6875C253.083 20.3125 253.625 20.0833 254.25 20C255.375 20 256.208 20.75 256.75 22.25C257.292 27.5 257.729 32.7083 258.062 37.875C258.438 43.0417 259.083 48.0208 260 52.8125C261.458 52.8125 262.938 52.8333 264.438 52.875C265.979 52.875 267.542 52.875 269.125 52.875C271.792 52.875 274.479 52.8125 277.188 52.6875C278.021 52.9375 278.625 53.3125 279 53.8125C279.375 54.2708 279.562 54.7708 279.562 55.3125C279.479 55.9375 279.25 56.4792 278.875 56.9375C278.5 57.3958 277.917 57.6875 277.125 57.8125C275 57.8958 272.854 58.0417 270.688 58.25C268.562 58.5 266.438 58.625 264.312 58.625C263.604 58.625 262.792 58.6042 261.875 58.5625C261 58.5208 260.146 58.4167 259.312 58.25C258.479 58.0833 257.708 57.8333 257 57.5C256.292 57.1667 255.771 56.7083 255.438 56.125C254.896 53.8333 254.5 51.6042 254.25 49.4375C254 47.2292 253.771 45 253.562 42.75C253.188 39.375 252.875 36 252.625 32.625C252.375 29.25 252.083 25.8542 251.75 22.4375ZM306.688 21.75C307.062 22.4583 307.25 23.125 307.25 23.75C307.25 24.3333 307 24.8542 306.5 25.3125C306.042 25.7292 305.438 25.9375 304.688 25.9375C304.188 25.9375 303.729 25.8333 303.312 25.625C301.688 24.25 299.917 23.5625 298 23.5625C295.833 23.5625 294 24.4375 292.5 26.1875C292.458 26.3542 292.396 26.5417 292.312 26.75C292.271 26.9583 292.208 27.1458 292.125 27.3125C292.125 29.0625 292.583 30.5208 293.5 31.6875C294.417 32.8125 295.562 33.8333 296.938 34.75C298.312 35.625 299.792 36.4583 301.375 37.25C302.958 38.0417 304.438 38.9583 305.812 40C307.188 41.0417 308.333 42.3125 309.25 43.8125C310.167 45.2708 310.625 47.1042 310.625 49.3125C310.625 51.1458 310.188 52.6875 309.312 53.9375C308.479 55.1875 307.417 56.2083 306.125 57C304.833 57.75 303.458 58.2917 302 58.625C300.542 59 299.188 59.1875 297.938 59.1875C295.771 59.1875 293.646 58.7292 291.562 57.8125C289.479 56.9375 287.667 55.6042 286.125 53.8125C285.792 53.3542 285.458 52.7708 285.125 52.0625C284.792 51.3542 284.625 50.6667 284.625 50C284.625 49.2917 284.833 48.6875 285.25 48.1875C285.708 47.6458 286.354 47.375 287.188 47.375C287.979 47.375 288.604 47.7292 289.062 48.4375C289.562 49.1042 290 49.9375 290.375 50.9375C291.458 52.0208 292.625 52.8333 293.875 53.375C295.125 53.875 296.417 54.125 297.75 54.125C298.25 54.125 298.875 54.0833 299.625 54C300.375 53.875 301.104 53.6875 301.812 53.4375C302.562 53.1875 303.229 52.875 303.812 52.5C304.438 52.0833 304.875 51.5833 305.125 51C305.208 50.6667 305.271 50.3958 305.312 50.1875C305.396 49.9375 305.479 49.7083 305.562 49.5C305.312 48.0833 304.792 46.8542 304 45.8125C303.25 44.7708 302.354 43.8542 301.312 43.0625C300.271 42.2708 299.167 41.5833 298 41C296.875 40.4167 295.833 39.8542 294.875 39.3125C293.167 38.3542 291.625 37.2083 290.25 35.875C288.875 34.5 287.833 32.5208 287.125 29.9375C286.917 29.1875 286.812 28.4792 286.812 27.8125C286.812 26.3958 287.167 25.1042 287.875 23.9375C288.583 22.7708 289.5 21.7917 290.625 21C291.75 20.1667 293.021 19.5208 294.438 19.0625C295.854 18.6042 297.292 18.375 298.75 18.375C300.458 18.375 301.938 18.6875 303.188 19.3125C304.438 19.8958 305.604 20.7083 306.688 21.75Z" fill="black"/>
</svg>
