<svg width="331" height="80" viewBox="0 0 331 80" fill="none" xmlns="http://www.w3.org/2000/svg">
<path d="M54.8918 17.9939C54.6947 17.4053 54.4595 17.2504 54.092 17.1032C53.2884 16.8012 51.9272 17.2581 51.9272 17.2581C51.9272 17.2581 3.73715 34.8229 0.984094 36.7668C0.391315 37.185 0.192711 37.4328 0.0941692 37.7193C-0.381734 39.0979 1.10097 39.7097 1.10097 39.7097L13.5218 43.8143C13.5218 43.8143 13.9847 43.884 14.1497 43.7756C16.9754 41.9634 42.5787 25.5758 44.0553 25.0259C44.2883 24.9562 44.4609 25.0337 44.4151 25.1963C43.8238 27.3029 21.5862 47.3381 21.5862 47.3381C21.5862 47.3381 21.5014 47.4465 21.448 47.5705L21.4189 47.555L20.2601 60.047C20.2601 60.047 19.7743 63.8728 23.5487 60.047C26.2116 57.3441 28.7882 55.0827 30.0776 53.9907C34.3485 56.9801 38.9448 60.2871 40.9287 62.0141C41.9248 62.8815 42.7582 63.0209 43.4442 62.9977C45.3272 62.928 45.8527 60.8292 45.8527 60.8292C45.8527 60.8292 54.6344 24.995 54.9277 20.1933C54.9567 19.7209 54.9965 19.4266 54.9995 19.1013C55.0049 18.6521 54.9636 18.203 54.8918 17.9939Z" fill="black"/>
<path d="M88.5625 26.9375C88.4375 31.3958 88.375 36 88.375 40.75V55.375C88.375 56.125 88.1042 56.7292 87.5625 57.1875C87.0625 57.6458 86.5208 57.875 85.9375 57.875C85.3542 57.875 84.7708 57.6667 84.1875 57.25C83.6458 56.875 83.3333 56.2083 83.25 55.25V40.875C83.25 36.25 83.3125 31.7708 83.4375 27.4375C81.4375 27.6458 79.6458 27.8333 78.0625 28C76.4792 28.125 75.0833 28.2708 73.875 28.4375C73.0417 28.3542 72.3958 28.0625 71.9375 27.5625C71.5208 27.0625 71.3125 26.4583 71.3125 25.75C71.3125 24.9583 71.6875 24.3542 72.4375 23.9375C73.1875 23.5208 74.1875 23.2083 75.4375 23C76.6875 22.75 78.125 22.5833 79.75 22.5C81.4167 22.4167 83.1667 22.2917 85 22.125C87.5417 21.9167 89.7917 21.75 91.75 21.625C93.7083 21.5 95.3958 21.4375 96.8125 21.4375C98.3125 21.9792 99.0625 22.8125 99.0625 23.9375C98.9375 24.8125 98.5625 25.4375 97.9375 25.8125C97.3542 26.1875 96.5833 26.4375 95.625 26.5625C94.7083 26.6875 93.6458 26.75 92.4375 26.75C91.2292 26.75 89.9375 26.8125 88.5625 26.9375ZM106.938 56.6875C106.562 56.1875 106.25 55.5833 106 54.875C105.792 54.1667 105.625 53.4167 105.5 52.625C105.375 51.8333 105.271 51.0208 105.188 50.1875C105.146 49.3542 105.104 48.5625 105.062 47.8125L104.688 40.3125C104.562 39.1042 104.458 38.1875 104.375 37.5625C104.333 36.9375 104.271 36.3125 104.188 35.6875C104.146 35.0208 104.104 34.2292 104.062 33.3125C104.062 32.3542 104.062 30.9583 104.062 29.125C104.062 28.5 104.042 27.8958 104 27.3125C104 26.7292 104 26.1458 104 25.5625C104 24.0625 104.375 23.0417 105.125 22.5C105.917 21.9167 106.917 21.625 108.125 21.625C108.833 21.625 109.583 21.6667 110.375 21.75C111.167 21.7917 111.958 21.8125 112.75 21.8125C114.208 21.8125 115.646 21.625 117.062 21.25C118.479 20.8333 119.854 20.5 121.188 20.25C122.021 20.25 122.729 20.4792 123.312 20.9375C123.896 21.3542 124.188 21.875 124.188 22.5C124.188 23.0833 124 23.6667 123.625 24.25C123.25 24.7917 122.646 25.1458 121.812 25.3125C120.188 25.6458 118.521 26.0208 116.812 26.4375C115.104 26.8542 113.375 27.0625 111.625 27.0625C111.167 27.0625 110.708 27.0625 110.25 27.0625C109.792 27.0625 109.396 27.0208 109.062 26.9375C109.104 28.5208 109.146 30.0417 109.188 31.5C109.229 32.9583 109.292 34.375 109.375 35.75H109.438C112.604 35.4167 115.583 35.2292 118.375 35.1875C121.167 35.1042 124.125 35.0625 127.25 35.0625C128.792 35.4792 129.562 36.3333 129.562 37.625C129.562 38.2083 129.333 38.75 128.875 39.25C128.458 39.7083 127.875 40 127.125 40.125C126.792 40.125 126.125 40.125 125.125 40.125C124.167 40.125 123.042 40.1458 121.75 40.1875C120.458 40.1875 119.104 40.2083 117.688 40.25C116.271 40.25 114.958 40.2917 113.75 40.375C112.583 40.4167 111.604 40.4792 110.812 40.5625C110.062 40.6458 109.688 40.75 109.688 40.875C109.688 42.75 109.792 44.625 110 46.5C110.25 48.3333 110.458 50.1458 110.625 51.9375C111.75 51.5208 112.979 51.1667 114.312 50.875C115.646 50.5417 117.021 50.2917 118.438 50.125C119.896 49.9583 121.375 49.8333 122.875 49.75C124.375 49.6667 125.833 49.625 127.25 49.625C128.083 49.9583 128.667 50.3542 129 50.8125C129.375 51.2292 129.562 51.7083 129.562 52.25C129.562 52.8333 129.333 53.375 128.875 53.875C128.458 54.3333 127.875 54.625 127.125 54.75C125.208 54.75 123.208 54.8958 121.125 55.1875C119.042 55.4375 117.104 55.75 115.312 56.125C113.562 56.4583 112.062 56.75 110.812 57C109.562 57.2917 108.812 57.4375 108.562 57.4375C108.354 57.4375 108.104 57.3542 107.812 57.1875C107.562 57.0625 107.271 56.8958 106.938 56.6875ZM133.75 22.4375C133.917 21.6458 134.208 21.0625 134.625 20.6875C135.083 20.3125 135.625 20.0833 136.25 20C137.375 20 138.208 20.75 138.75 22.25C139.292 27.5 139.729 32.7083 140.062 37.875C140.438 43.0417 141.083 48.0208 142 52.8125C143.458 52.8125 144.938 52.8333 146.438 52.875C147.979 52.875 149.542 52.875 151.125 52.875C153.792 52.875 156.479 52.8125 159.188 52.6875C160.021 52.9375 160.625 53.3125 161 53.8125C161.375 54.2708 161.562 54.7708 161.562 55.3125C161.479 55.9375 161.25 56.4792 160.875 56.9375C160.5 57.3958 159.917 57.6875 159.125 57.8125C157 57.8958 154.854 58.0417 152.688 58.25C150.562 58.5 148.438 58.625 146.312 58.625C145.604 58.625 144.792 58.6042 143.875 58.5625C143 58.5208 142.146 58.4167 141.312 58.25C140.479 58.0833 139.708 57.8333 139 57.5C138.292 57.1667 137.771 56.7083 137.438 56.125C136.896 53.8333 136.5 51.6042 136.25 49.4375C136 47.2292 135.771 45 135.562 42.75C135.188 39.375 134.875 36 134.625 32.625C134.375 29.25 134.083 25.8542 133.75 22.4375ZM169.938 56.6875C169.562 56.1875 169.25 55.5833 169 54.875C168.792 54.1667 168.625 53.4167 168.5 52.625C168.375 51.8333 168.271 51.0208 168.188 50.1875C168.146 49.3542 168.104 48.5625 168.062 47.8125L167.688 40.3125C167.562 39.1042 167.458 38.1875 167.375 37.5625C167.333 36.9375 167.271 36.3125 167.188 35.6875C167.146 35.0208 167.104 34.2292 167.062 33.3125C167.062 32.3542 167.062 30.9583 167.062 29.125C167.062 28.5 167.042 27.8958 167 27.3125C167 26.7292 167 26.1458 167 25.5625C167 24.0625 167.375 23.0417 168.125 22.5C168.917 21.9167 169.917 21.625 171.125 21.625C171.833 21.625 172.583 21.6667 173.375 21.75C174.167 21.7917 174.958 21.8125 175.75 21.8125C177.208 21.8125 178.646 21.625 180.062 21.25C181.479 20.8333 182.854 20.5 184.188 20.25C185.021 20.25 185.729 20.4792 186.312 20.9375C186.896 21.3542 187.188 21.875 187.188 22.5C187.188 23.0833 187 23.6667 186.625 24.25C186.25 24.7917 185.646 25.1458 184.812 25.3125C183.188 25.6458 181.521 26.0208 179.812 26.4375C178.104 26.8542 176.375 27.0625 174.625 27.0625C174.167 27.0625 173.708 27.0625 173.25 27.0625C172.792 27.0625 172.396 27.0208 172.062 26.9375C172.104 28.5208 172.146 30.0417 172.188 31.5C172.229 32.9583 172.292 34.375 172.375 35.75H172.438C175.604 35.4167 178.583 35.2292 181.375 35.1875C184.167 35.1042 187.125 35.0625 190.25 35.0625C191.792 35.4792 192.562 36.3333 192.562 37.625C192.562 38.2083 192.333 38.75 191.875 39.25C191.458 39.7083 190.875 40 190.125 40.125C189.792 40.125 189.125 40.125 188.125 40.125C187.167 40.125 186.042 40.1458 184.75 40.1875C183.458 40.1875 182.104 40.2083 180.688 40.25C179.271 40.25 177.958 40.2917 176.75 40.375C175.583 40.4167 174.604 40.4792 173.812 40.5625C173.062 40.6458 172.688 40.75 172.688 40.875C172.688 42.75 172.792 44.625 173 46.5C173.25 48.3333 173.458 50.1458 173.625 51.9375C174.75 51.5208 175.979 51.1667 177.312 50.875C178.646 50.5417 180.021 50.2917 181.438 50.125C182.896 49.9583 184.375 49.8333 185.875 49.75C187.375 49.6667 188.833 49.625 190.25 49.625C191.083 49.9583 191.667 50.3542 192 50.8125C192.375 51.2292 192.562 51.7083 192.562 52.25C192.562 52.8333 192.333 53.375 191.875 53.875C191.458 54.3333 190.875 54.625 190.125 54.75C188.208 54.75 186.208 54.8958 184.125 55.1875C182.042 55.4375 180.104 55.75 178.312 56.125C176.562 56.4583 175.062 56.75 173.812 57C172.562 57.2917 171.812 57.4375 171.562 57.4375C171.354 57.4375 171.104 57.3542 170.812 57.1875C170.562 57.0625 170.271 56.8958 169.938 56.6875ZM212.812 45C212.688 45.0417 212.5 45.0625 212.25 45.0625C211.542 45.0625 210.917 44.8542 210.375 44.4375C209.875 43.9792 209.625 43.3542 209.625 42.5625C209.625 41.6875 210.021 41 210.812 40.5C211.646 40 212.625 39.6458 213.75 39.4375C214.917 39.1875 216.125 39.0417 217.375 39C218.625 38.9583 219.667 38.9375 220.5 38.9375C221.25 38.9375 222.083 38.9375 223 38.9375C223.917 38.8958 224.792 38.9375 225.625 39.0625C226.458 39.1875 227.146 39.4375 227.688 39.8125C228.271 40.1875 228.562 40.75 228.562 41.5C228.562 42.0833 228.333 42.625 227.875 43.125C227.417 43.625 226.833 43.9583 226.125 44.125H223.062C222.938 45.8333 222.812 47.4167 222.688 48.875C222.604 50.2917 222.188 51.6458 221.438 52.9375C220.229 54.7708 218.458 56.25 216.125 57.375C213.792 58.5417 211.25 59.125 208.5 59.125C206.375 59.125 204.646 58.6875 203.312 57.8125C201.979 56.9375 200.896 55.8333 200.062 54.5C199.271 53.1667 198.667 51.7292 198.25 50.1875C197.875 48.6042 197.562 47.1042 197.312 45.6875C197.062 44.6042 196.875 43.5625 196.75 42.5625C196.667 41.5625 196.625 40.6458 196.625 39.8125C196.625 37.5625 196.917 35.2292 197.5 32.8125C198.125 30.3958 199 28.2083 200.125 26.25C201.25 24.25 202.625 22.625 204.25 21.375C205.917 20.0833 207.792 19.4375 209.875 19.4375C210.792 19.4375 211.708 19.4583 212.625 19.5C213.583 19.5 214.438 19.5833 215.188 19.75C215.979 19.9167 216.625 20.1875 217.125 20.5625C217.625 20.9375 217.875 21.5 217.875 22.25C217.792 22.875 217.562 23.4167 217.188 23.875C216.812 24.2917 216.25 24.5833 215.5 24.75C214.583 24.75 213.688 24.6875 212.812 24.5625C211.979 24.4375 211.146 24.375 210.312 24.375C209.188 24.375 208.208 24.6458 207.375 25.1875C206.542 25.7292 205.833 26.4167 205.25 27.25C204.667 28.0833 204.167 29 203.75 30C203.375 31 203.062 31.9583 202.812 32.875C202.604 33.75 202.438 34.5417 202.312 35.25C202.229 35.9167 202.167 36.3542 202.125 36.5625C201.958 37.5208 201.875 39.1042 201.875 41.3125C201.875 43.4375 202.104 45.4583 202.562 47.375C203.021 49.2917 203.812 51.0625 204.938 52.6875C205.229 53.1458 205.688 53.4792 206.312 53.6875C206.979 53.8958 207.729 54 208.562 54C210.646 54 212.312 53.7292 213.562 53.1875C214.812 52.6458 215.75 51.9375 216.375 51.0625C217.042 50.1458 217.479 49.0833 217.688 47.875C217.896 46.6667 218 45.375 218 44C217.208 44.0417 216.375 44.1458 215.5 44.3125C214.667 44.4792 213.771 44.7083 212.812 45ZM238.188 57.3125C238.188 58.0208 237.917 58.6042 237.375 59.0625C236.875 59.5208 236.333 59.75 235.75 59.75C235.167 59.75 234.583 59.5417 234 59.125C233.458 58.75 233.146 58.125 233.062 57.25C233.062 54.4583 233.083 51.6875 233.125 48.9375C233.208 46.1875 233.25 43.4167 233.25 40.625C233.25 39.8333 233.188 38.5833 233.062 36.875C232.979 35.125 232.938 33.3125 232.938 31.4375C232.938 29.4375 233 27.4792 233.125 25.5625C233.292 23.6458 233.667 21.9792 234.25 20.5625L234.625 19.9375L235.312 19.375C236.438 18.9583 237.604 18.75 238.812 18.75C240.521 18.75 242.354 18.9375 244.312 19.3125C246.271 19.6458 248.083 20.25 249.75 21.125C251.417 22 252.792 23.1875 253.875 24.6875C255 26.1458 255.562 28.0208 255.562 30.3125C255.562 31.3958 255.396 32.3958 255.062 33.3125C254.771 34.2292 254.375 35.0625 253.875 35.8125C253.417 36.5625 252.875 37.2292 252.25 37.8125C251.667 38.3958 251.083 38.875 250.5 39.25C249.292 40.0417 247.958 40.6667 246.5 41.125C245.042 41.5417 243.521 42.0208 241.938 42.5625L241.188 42.8125C241.104 42.7708 241.062 42.75 241.062 42.75C242.062 43.4583 243 44.2083 243.875 45C244.792 45.75 245.708 46.5 246.625 47.25C247.583 48 248.562 48.7292 249.562 49.4375C250.604 50.1042 251.729 50.7292 252.938 51.3125C253.729 52.0625 254.125 52.8542 254.125 53.6875C254.125 54.3958 253.875 54.9792 253.375 55.4375C252.917 55.8542 252.354 56.0625 251.688 56.0625C251.188 56.0625 250.604 55.9167 249.938 55.625C249.271 55.3333 248.583 54.9792 247.875 54.5625C247.167 54.1042 246.438 53.625 245.688 53.125C244.979 52.625 244.312 52.1667 243.688 51.75C242.604 51.0417 241.604 50.3125 240.688 49.5625C239.812 48.8125 239.021 48.0833 238.312 47.375V48.6875C238.312 50.0625 238.271 51.4792 238.188 52.9375C238.146 54.3542 238.146 55.8125 238.188 57.3125ZM238.375 38.125C238.292 38.2083 238.25 38.25 238.25 38.25C238.208 38.25 238.312 38.2083 238.562 38.125C239.479 37.875 240.604 37.625 241.938 37.375C243.312 37.0833 244.625 36.6875 245.875 36.1875C247.125 35.6458 248.188 34.9375 249.062 34.0625C249.979 33.1458 250.438 31.9167 250.438 30.375C250.438 29.125 250.188 28.1458 249.688 27.4375C249.229 26.7292 248.604 26.1875 247.812 25.8125C247.062 25.3958 246.208 25.1042 245.25 24.9375C244.292 24.7292 243.333 24.5208 242.375 24.3125C241.833 24.1875 241.229 24.0833 240.562 24C239.896 23.875 239.333 23.8125 238.875 23.8125C238.708 23.8125 238.583 24.0833 238.5 24.625C238.417 25.125 238.354 25.7292 238.312 26.4375C238.312 27.1458 238.312 27.8542 238.312 28.5625C238.312 29.2292 238.312 29.7292 238.312 30.0625C238.312 31.6042 238.312 33.0625 238.312 34.4375C238.354 35.8125 238.375 37.0417 238.375 38.125ZM268.562 45.125C268.354 45.0833 268.167 45.0625 268 45.0625C267.917 45.0625 267.708 45.375 267.375 46C267.042 46.5833 266.646 47.2708 266.188 48.0625C265.771 48.8125 265.354 49.5833 264.938 50.375C264.521 51.125 264.208 51.6667 264 52C263.333 52.7917 262.583 53.1875 261.75 53.1875C261.125 53.1875 260.583 52.9792 260.125 52.5625C259.667 52.1042 259.438 51.4583 259.438 50.625C259.438 50.2917 259.458 50.0208 259.5 49.8125C260.875 47.3958 262.188 45.0208 263.438 42.6875C264.688 40.3542 265.979 38.0417 267.312 35.75C268.688 33.4583 270.125 31.2292 271.625 29.0625C273.125 26.8542 274.812 24.7083 276.688 22.625C276.979 22.2917 277.292 22.0833 277.625 22C277.958 21.875 278.271 21.7917 278.562 21.75C279.188 21.75 279.708 21.9792 280.125 22.4375C280.583 22.8958 280.854 23.4583 280.938 24.125C280.812 24.5833 280.667 24.8958 280.5 25.0625L281 24.8125C281.542 24.8125 282.104 24.9583 282.688 25.25C283.312 25.5417 283.75 26.1042 284 26.9375C284.333 29.2708 284.729 31.5417 285.188 33.75C285.646 35.9167 286.083 38.1042 286.5 40.3125C286.958 42.4792 287.354 44.6667 287.688 46.875C288.062 49.0833 288.292 51.375 288.375 53.75C288.375 54.5833 288.125 55.2292 287.625 55.6875C287.125 56.1042 286.583 56.3125 286 56.3125C285.375 56.3125 284.771 56.125 284.188 55.75C283.646 55.375 283.333 54.7292 283.25 53.8125C283.167 50.8958 282.917 48.1458 282.5 45.5625C282.417 45.6458 282.188 45.7083 281.812 45.75C279.562 45.75 277.312 45.6458 275.062 45.4375C272.854 45.2292 270.688 45.125 268.562 45.125ZM270.75 40.125C272.25 40.2083 274 40.3125 276 40.4375C278 40.5625 279.833 40.625 281.5 40.625H281.562L281.5 40.3125C281.375 39.8958 281.229 39.2917 281.062 38.5C280.896 37.7083 280.708 36.8542 280.5 35.9375C280.333 35.0208 280.146 34.0833 279.938 33.125C279.771 32.125 279.604 31.2292 279.438 30.4375C279.271 29.6458 279.125 29 279 28.5C278.917 28 278.875 27.75 278.875 27.75C278.5 28.0833 277.979 28.6875 277.312 29.5625C276.729 30.3125 275.979 31.4167 275.062 32.875C274.146 34.2917 273 36.2292 271.625 38.6875L270.75 40.125ZM316.312 25.125L317.875 22.8125C318.5 22.2708 318.938 21.9583 319.188 21.875C319.479 21.75 319.833 21.6875 320.25 21.6875H320.688L321.562 21.9375L322.125 22.4375C322.542 22.8125 322.896 23.4167 323.188 24.25C323.479 25.0417 323.729 25.8958 323.938 26.8125C324.146 27.7292 324.312 28.625 324.438 29.5C324.562 30.3333 324.688 31 324.812 31.5C325.104 32.875 325.333 34.0417 325.5 35C325.667 35.9583 325.812 36.8542 325.938 37.6875C326.062 38.5208 326.188 39.4167 326.312 40.375C326.479 41.3333 326.708 42.5 327 43.875C327.333 45.5833 327.625 47.2292 327.875 48.8125C328.167 50.3542 328.312 51.9583 328.312 53.625C328.312 55.125 328.042 56.125 327.5 56.625C326.958 57.125 326.271 57.375 325.438 57.375C324.812 57.2917 324.292 57.0417 323.875 56.625C323.458 56.2083 323.229 55.625 323.188 54.875C323.229 54.5417 323.25 54.2292 323.25 53.9375C323.292 53.6458 323.312 53.3333 323.312 53C323.312 51.375 323.125 49.8125 322.75 48.3125C322.417 46.7708 322.083 45.1667 321.75 43.5C321.167 40.5 320.708 37.9167 320.375 35.75C320.083 33.5833 319.688 31.5417 319.188 29.625L318.875 30.0625C318.083 31.2292 317.292 32.4583 316.5 33.75C315.708 35 314.938 36.25 314.188 37.5C313.479 38.75 312.792 39.9375 312.125 41.0625C311.5 42.1875 310.938 43.1875 310.438 44.0625C309.688 44.9375 308.958 45.375 308.25 45.375C307.583 45.375 306.938 45.0417 306.312 44.375C305.729 43.6667 305.167 42.7917 304.625 41.75C304.083 40.7083 303.583 39.6042 303.125 38.4375C302.708 37.2292 302.333 36.1458 302 35.1875L300.062 30.625C299.729 32.2083 299.458 33.9167 299.25 35.75C299.083 37.5417 298.958 39.4167 298.875 41.375C298.792 43.2917 298.729 45.25 298.688 47.25C298.688 49.25 298.688 51.2292 298.688 53.1875C298.688 53.9375 298.417 54.5417 297.875 55C297.333 55.4583 296.771 55.6875 296.188 55.6875C295.438 55.6875 294.875 55.5 294.5 55.125C294.167 54.75 293.938 54.2292 293.812 53.5625C293.688 52.8958 293.625 52.1458 293.625 51.3125C293.625 50.4375 293.625 49.5208 293.625 48.5625C293.625 45.6875 293.688 42.8333 293.812 40C293.938 37.1667 294.292 34.3125 294.875 31.4375C295.042 30.8958 295.167 30.1458 295.25 29.1875C295.375 28.1875 295.562 27.2292 295.812 26.3125C296.104 25.3958 296.5 24.6042 297 23.9375C297.542 23.2292 298.292 22.875 299.25 22.875C300 22.875 300.771 23.2708 301.562 24.0625C302.354 24.8125 303.104 25.7917 303.812 27C304.562 28.2083 305.25 29.5417 305.875 31C306.542 32.4583 307.104 33.8958 307.562 35.3125C307.938 36.5625 308.271 37.1875 308.562 37.1875C308.562 37.1875 308.708 36.9792 309 36.5625C309.292 36.1458 309.646 35.625 310.062 35C310.479 34.3333 310.917 33.625 311.375 32.875C311.875 32.0833 312.333 31.3125 312.75 30.5625L315.562 26.25C315.812 25.9583 316.062 25.5833 316.312 25.125Z" fill="black"/>
</svg>
